PathFileType	4	(X/Y/Z)	c:\Git\powerlifing_model_clean\simulations\HC835B\Session1\HC835B_CUT_0002\marker_experimental.trc
DataRate	CameraRate	NumFrames	NumMarkers	Units	OrigDataRate	OrigDataStartFrame	OrigNumFrames
240.000000	240.000000	4	38	mm	240.000000	41	82
Frame#	Time	RPSI			LPSI			RASI			LASI			RTH1			RTH2			RTH3			RTH4			RSK1			RSK2			RSK3			RSK4			RCAL1			RCAL2			RCAL3			RST			RPT			RTN			RFMB			RSMB			RVMB			RFMH			RSMH			RVMH			RPM			LTH1			LTH2			LTH3			LTH4			LSK1			LSK2			LSK3			LSK4			LCAL1			LCAL2			LCAL3			LFMH			LVMH			
		X1	Y1	Z1	X2	Y2	Z2	X3	Y3	Z3	X4	Y4	Z4	X5	Y5	Z5	X6	Y6	Z6	X7	Y7	Z7	X8	Y8	Z8	X9	Y9	Z9	X10	Y10	Z10	X11	Y11	Z11	X12	Y12	Z12	X13	Y13	Z13	X14	Y14	Z14	X15	Y15	Z15	X16	Y16	Z16	X17	Y17	Z17	X18	Y18	Z18	X19	Y19	Z19	X20	Y20	Z20	X21	Y21	Z21	X22	Y22	Z22	X23	Y23	Z23	X24	Y24	Z24	X25	Y25	Z25	X26	Y26	Z26	X27	Y27	Z27	X28	Y28	Z28	X29	Y29	Z29	X30	Y30	Z30	X31	Y31	Z31	X32	Y32	Z32	X33	Y33	Z33	X34	Y34	Z34	X35	Y35	Z35	X36	Y36	Z36	X37	Y37	Z37	X38	Y38	Z38	

42	0.1708333333333333	-31.37922668457032	1044.8896484375	-462.2573852539064	-125.8940963745117	1011.438354492188	-426.913299560547	-37.59470367431641	1017.3037109375	-693.2888183593751	-249.9679718017579	925.1317138671877	-585.7077026367189	114.6319122314453	771.686950683594	-690.3188476562501	86.34762573242189	760.8168334960939	-742.9479370117189	113.8299255371094	691.7489013671876	-717.7595825195314	78.15174102783205	678.2782592773439	-762.4616088867189	241.4120025634766	298.0190734863282	-587.7144165039064	227.5572967529297	259.6413269042969	-634.2109985351564	253.6183471679688	240.8035430908204	-582.2915039062501	228.8133239746094	202.0958404541016	-621.2117309570314	290.3447570800782	102.3880310058594	-463.4249877929689	260.9743652343751	63.25049591064455	-453.3303527832032	321.0111389160157	66.41942596435548	-476.331756591797	216.0193786621094	66.26477050781251	-510.0661621093751	319.2518615722657	72.7189407348633	-540.9848632812501	205.3094940185547	78.38494873046876	-569.2311401367189	201.0911407470704	67.04234313964845	-602.0165405273439	240.4077453613282	91.1643753051758	-628.7556152343751	316.5813598632813	43.97314071655274	-583.7930908203126	184.7837219238282	45.70038223266602	-649.9454345703126	229.1971130371094	54.19700241088869	-684.7781372070314	301.7315979003907	31.61022758483887	-661.9314575195314	193.5907592773438	36.62942123413087	-733.6377563476564	-263.5875244140626	668.7566528320314	-616.8295288085939	-290.2739257812501	688.4194335937501	-667.8446044921876	-270.7628173828126	609.3687744140626	-678.0610351562501	-282.3416442871094	632.4778442382814	-733.4022827148439	-67.77645874023439	465.8831787109376	-533.6541137695314	-54.80218505859376	414.0855407714845	-535.9053955078126	-31.87225151062012	438.4820556640626	-499.1799926757814	-7.173380851745607	390.1770019531251	-512.9676513671876	94.61863708496095	475.8278198242189	-393.7283020019532	90.75148773193361	455.9789123535157	-350.6596679687501	140.0980529785157	470.7758789062501	-379.6231384277344	166.2208557128907	273.2362670898438	-475.1118774414064	93.35498809814455	265.2811584472657	-388.5680541992189	
43	0.175	-36.4967155456543	1046.043334960938	-479.7008666992189	-130.7015991210938	1012.990112304688	-443.713836669922	-44.69581604003907	1017.306274414063	-710.4912719726564	-257.6965332031251	925.3726806640627	-599.8129272460939	110.5035476684571	771.4624633789065	-700.5932006835939	83.02787017822267	759.1067504882814	-753.3618774414064	111.0376815795899	690.9253540039064	-726.3811645507814	76.0763397216797	676.0148315429689	-771.2549438476565	241.0599822998047	298.8168640136719	-589.8391113281251	227.3370208740235	259.8663330078126	-636.1466064453126	252.9616699218751	241.5292053222657	-584.1501464843751	229.3223876953126	202.8076629638672	-623.3490600585939	290.2189025878907	103.9508361816407	-464.067840576172	260.9419860839844	64.44122314453126	-453.8396606445314	321.0802917480469	68.13140869140626	-476.8995361328126	216.0839233398438	67.27910614013673	-510.7474975585939	319.2397155761719	74.12098693847658	-541.5537719726564	205.3177337646485	79.11824798583986	-569.9406738281251	201.1159973144532	67.54454803466798	-602.7761230468751	240.4749450683594	91.46821594238283	-629.5895385742189	316.6620483398438	44.87449264526368	-584.2068481445314	184.99072265625	45.53314208984376	-649.9038696289064	229.2511291503907	53.94294738769533	-685.0742797851564	301.8755187988282	31.62439918518067	-662.2003173828126	193.6434936523438	36.64005279541016	-733.7039794921876	-273.7473144531251	674.5209960937501	-636.0968627929689	-299.2113037109376	695.4170532226564	-686.9117431640626	-282.3120117187501	616.6314697265626	-698.9273071289064	-293.6083679199219	641.2541503906251	-753.6135253906251	-78.93960571289064	463.959930419922	-559.9833984375001	-66.68063354492189	411.4332885742189	-564.7152099609376	-42.73662185668946	434.5845642089845	-527.4132690429689	-19.31187438964844	385.9734802246095	-542.6705932617189	85.99233245849611	465.6546325683595	-421.6771240234376	82.0193557739258	443.9013977050782	-379.4167480468751	131.6371002197266	458.9722290039064	-408.1783447265626	151.4786224365235	264.7296752929688	-511.4682617187501	79.38124847412111	255.3682250976563	-424.4951477050782	
44	0.1791666666666667	-41.50506210327149	1047.349731445313	-497.5564880371095	-135.6351776123047	1014.798095703125	-460.7124938964845	-51.75293350219728	1016.851440429688	-727.6565551757814	-265.4437255859376	926.142517089844	-614.0337524414064	106.3153305053711	771.6304321289065	-710.9304199218751	79.35473632812501	757.8087768554689	-763.6810302734376	107.6507797241211	690.5572509765626	-735.0664062500001	73.46437835693361	674.4049682617189	-779.843444824219	240.1599121093751	299.7644348144532	-592.6243896484376	226.779037475586	260.5595092773438	-638.4049682617189	252.5786132812501	242.7183837890626	-586.2480468750001	229.1541137695313	203.5465240478516	-624.9783935546876	290.4087524414063	106.1436462402344	-464.6494140625001	261.5265502929688	66.75188446044923	-454.416717529297	321.4640808105469	70.3927688598633	-477.706024169922	216.4371490478516	68.66658782958986	-510.9107055664064	319.4807128906251	75.72775268554689	-542.3262939453126	205.3830261230469	79.9445266723633	-570.2423095703126	201.3445587158204	67.9133987426758	-602.8327636718751	240.8572387695313	91.6117401123047	-630.3370971679689	316.7341613769532	45.81629943847657	-584.7265625000001	185.0527954101563	45.48860549926759	-649.9442749023439	229.4067077636719	53.7437210083008	-685.3521728515626	302.0482482910157	31.63975715637208	-662.4588012695314	193.5486297607422	36.61188125610352	-733.6926269531251	-283.3502502441407	679.8380126953126	-655.1074829101564	-308.7615661621094	702.4888305664064	-705.1334228515626	-293.6069030761719	623.7857055664064	-719.4021606445314	-304.8056640625001	650.3630371093751	-773.1343383789065	-89.74745178222658	461.6207885742189	-586.4836425781251	-78.58135223388673	408.9453430175782	-593.1716918945314	-53.81496810913087	430.0964660644532	-555.4543457031251	-31.38451957702637	381.2641601562501	-573.0535278320314	77.14906311035158	454.966766357422	-449.9352111816407	73.22750091552736	431.5641174316407	-408.4562072753907	122.3850555419922	446.4442443847657	-437.294891357422	135.6043853759766	255.5476989746094	-548.7847290039064	64.94985198974611	244.8976593017579	-460.7457275390626	
45	0.1833333333333333	-46.44407653808594	1048.802612304688	-515.6029663085939	-140.6649169921875	1016.785583496094	-477.9016418457032	-58.7097854614258	1016.021850585938	-744.8310546875001	-273.5646667480469	927.3967285156252	-628.6154785156251	101.8177185058594	772.075378417969	-721.2216796875001	75.42904663085939	757.0817260742189	-773.9024047851565	104.021713256836	690.6290893554689	-743.8126220703126	70.12725830078126	673.2536010742189	-788.3770751953127	239.5046691894532	301.3292236328126	-595.0579833984376	226.3608398437501	261.7380981445313	-640.5338745117189	252.2012786865235	244.4287109375001	-588.0850219726564	229.0300750732422	204.8251190185547	-627.1772460937501	290.8805236816407	109.060661315918	-465.8234252929689	261.9682006835938	70.04125976562501	-454.5416564941407	321.7731018066407	73.00542449951173	-478.466766357422	217.0658569335938	71.33654022216798	-511.1065368652345	319.9226074218751	77.51551055908205	-543.1021728515626	205.8106994628907	81.30501556396486	-570.8834228515626	201.6808471679688	68.89527130126955	-603.4056396484376	241.2712860107422	92.11820220947267	-631.1132812500001	316.9214782714844	46.83505630493165	-585.1403198242189	185.3538360595703	45.69051742553712	-650.1828613281251	229.7523193359376	53.59761047363283	-685.6491088867189	302.2327575683594	31.62044143676759	-662.5977783203126	193.6142120361329	36.71154785156251	-733.6656494140626	-292.7593078613282	685.1030883789064	-673.5451660156251	-318.7807312011719	709.7557983398439	-722.6410522460939	-304.6763305664063	631.0341796875001	-739.2832031250001	-315.7223510742188	659.1873168945314	-792.174011230469	-100.4986114501953	458.9072875976564	-612.7578735351564	-90.50515747070314	406.1627502441407	-621.6325683593751	-64.83815765380861	425.4059143066407	-583.6791381835939	-43.82845306396485	377.1349792480469	-602.6620483398439	68.17260742187501	443.901580810547	-478.5047302246095	64.08515930175783	419.3279113769532	-437.617401123047	113.4235382080078	433.7940673828126	-466.5117492675782	120.8508377075196	246.7318725585938	-584.6929931640626	50.30406570434572	234.6687011718751	-497.5041809082032	
